<?xml version="1.0" encoding="utf-8"?>
<!-- Generator: Adobe Illustrator 25.0.0, SVG Export Plug-In . SVG Version: 6.00 Build 0)  -->
<svg version="1.1" id="Layer_1" xmlns="http://www.w3.org/2000/svg" xmlns:xlink="http://www.w3.org/1999/xlink" x="0px" y="0px"
	 viewBox="0 0 526 192" style="enable-background:new 0 0 526 192;" xml:space="preserve">
<style type="text/css">
	.st0{fill:url(#SVGID_1_);}
	.st1{fill:url(#SVGID_2_);}
	.st2{fill:url(#SVGID_3_);}
	.st3{fill:url(#SVGID_4_);}
	.st4{fill:#B3C9F4;}
	.st5{fill-rule:evenodd;clip-rule:evenodd;fill:#FFFFFF;}
	.st6{fill:#717BBF;}
	.st7{opacity:0.5;fill:url(#SVGID_5_);enable-background:new    ;}
	.st8{opacity:0.5;fill:url(#SVGID_6_);enable-background:new    ;}
	.st9{fill:#131516;}
</style>
<linearGradient id="SVGID_1_" gradientUnits="userSpaceOnUse" x1="96.4904" y1="115.7662" x2="80.8316" y2="187.581" gradientTransform="matrix(1 0 0 -1 0 194)">
	<stop  offset="0" style="stop-color:#8D8DE4"/>
	<stop  offset="1" style="stop-color:#89A2E5;stop-opacity:0"/>
	<stop  offset="1" style="stop-color:#BBD9FF;stop-opacity:0"/>
</linearGradient>
<path class="st0" d="M76.9,7v123.2l54.8-32.3L76.9,7z"/>
<linearGradient id="SVGID_2_" gradientUnits="userSpaceOnUse" x1="85.6408" y1="131.291" x2="28.6749" y2="93.2238" gradientTransform="matrix(1 0 0 -1 0 194)">
	<stop  offset="0" style="stop-color:#8D8DE4"/>
	<stop  offset="1" style="stop-color:#89A2E5;stop-opacity:0"/>
	<stop  offset="1" style="stop-color:#BBD9FF;stop-opacity:0"/>
</linearGradient>
<path class="st1" d="M22.1,97.8l54.8,32.3V7L22.1,97.8z"/>
<linearGradient id="SVGID_3_" gradientUnits="userSpaceOnUse" x1="22.1" y1="47.25" x2="76.9" y2="47.25" gradientTransform="matrix(1 0 0 -1 0 194)">
	<stop  offset="0" style="stop-color:#E3FFFF"/>
	<stop  offset="1" style="stop-color:#89A2E5"/>
	<stop  offset="1" style="stop-color:#BBF9FF;stop-opacity:0"/>
</linearGradient>
<path class="st2" d="M22.1,108.2l54.8,77.1v-44.8L22.1,108.2z"/>
<linearGradient id="SVGID_4_" gradientUnits="userSpaceOnUse" x1="-52.6532" y1="253.8875" x2="422.5458" y2="-79.853">
	<stop  offset="6.489749e-03" style="stop-color:#DC614D"/>
	<stop  offset="0.3603" style="stop-color:#8D8DE4"/>
	<stop  offset="1" style="stop-color:#89A2E5"/>
</linearGradient>
<path class="st3" d="M76.9,140.5v44.8l54.8-77.1L76.9,140.5z"/>
<g>
	<path class="st4" d="M76.9,72.9L22.1,97.8l54.8,32.3l54.8-32.3L76.9,72.9z"/>
</g>
<path class="st5" d="M89.6,62.4c-4-1.6-8.3-2.4-12.7-2.4c-9.2,0-17.8,3.6-24.3,10.1s-10,15.2-10.1,24.3v1.2l1.1,0.6
	c5.2,2.9,11,4.5,16.9,4.5c0.2,0,0.3,0,0.5,0c5.2-0.1,10.3-1.3,14.9-3.6c-1.5-0.8-2.9-1.7-4.2-2.8c-8.1,3.2-17.2,2.8-24.9-1.2
	c0.8-16.1,14-29,30.1-29c4.5,0,8.9,1,12.9,2.9C89.8,65.5,89.8,64,89.6,62.4"/>
<path class="st5" d="M111.3,94.2c-0.1-11.5-5.7-21.9-14.9-28.3c0,1.7-0.1,3.4-0.3,5c6.6,5.4,10.6,13.3,11,22
	c-14.2,7.3-31.9,2.2-40-11.8c-2.2-3.8-3.5-8-3.9-12.4c-1.4,0.8-2.7,1.6-3.9,2.6c0.7,4.2,2.1,8.2,4.2,11.9c4.6,8,12,13.7,20.8,16.1
	c3,0.8,6,1.2,9,1.2c5.9,0,11.7-1.5,17-4.5l1.1-0.6L111.3,94.2z"/>
<path class="st5" d="M78.1,36L77,35.4L76,36c-5.2,3.1-9.6,7.5-12.6,12.7c-2.6,4.5-4.1,9.6-4.5,14.8c1.4-0.9,2.9-1.6,4.5-2.2
	c1.3-8.6,6.3-16.3,13.7-21C90.6,49,95,67.1,86.9,81.1c-2.2,3.8-5.2,7.1-8.8,9.6c1.3,0.8,2.7,1.5,4.2,2.1c3.3-2.7,6.1-5.9,8.2-9.6
	C100,66.8,94.4,45.6,78.1,36"/>
<polygon class="st6" points="76.9,146.5 131.7,108.2 131.7,108.2 76.9,140.5 22.1,108.2 22.1,108.2 "/>
<linearGradient id="SVGID_5_" gradientUnits="userSpaceOnUse" x1="75.5332" y1="186.2992" x2="42.3256" y2="50.7691" gradientTransform="matrix(1 0 0 -1 0 194)">
	<stop  offset="0" style="stop-color:#E3FFFF"/>
	<stop  offset="1" style="stop-color:#BBF9FF;stop-opacity:0"/>
</linearGradient>
<path class="st7" d="M22.1,97.8l54.8,32.3V7L22.1,97.8z"/>
<linearGradient id="SVGID_6_" gradientUnits="userSpaceOnUse" x1="117.958" y1="89.2972" x2="55.3226" y2="144.3732" gradientTransform="matrix(1 0 0 -1 0 194)">
	<stop  offset="1.975860e-02" style="stop-color:#DD5C47"/>
	<stop  offset="1" style="stop-color:#BBF9FF;stop-opacity:0"/>
</linearGradient>
<path class="st8" d="M76.9,7v123.2l54.8-32.3L76.9,7z"/>
<g>
	<path class="st9" d="M182.2,76.1h34.4v8.4h-24.7V97h19.8v8.4h-19.8v13.8h25.5v8.5h-35.2L182.2,76.1L182.2,76.1z"/>
	<path class="st9" d="M235.6,79.3v11.2h10.3v7.6h-10.3v16.2c0,3.8,2,5.7,5.4,5.7h4.9v7.7h-6c-8.1,0-13.4-4.7-13.4-13V98.2h-7.3v-7.6
		h7.3V79.3H235.6z"/>
	<path class="st9" d="M252.8,74.6h9v21.7c2.1-4.1,6.4-6.4,11.7-6.4c8.3,0,13.8,6.1,13.8,14.8v23h-9v-21.1c0-5.1-3.2-8.6-7.8-8.6
		c-5,0-8.6,4-8.6,9.5v20.3h-9L252.8,74.6L252.8,74.6z"/>
	<path class="st9" d="M328.9,115.4c-1.4,7.9-8.3,13-17.5,13c-12.2,0-19-9.6-19-19.4s6.1-19.1,18.2-19.1c12.5,0,18.1,9.1,18.1,17.9
		c0,1.3-0.1,2.4-0.1,3.1h-27.5c0.7,6,4.5,9.8,10.3,9.8c4.7,0,7.7-1.9,8.6-5.5h8.9V115.4z M301.4,105h18.3c-0.4-4.7-3.6-8.3-9-8.3
		C305.6,96.7,302.3,99.4,301.4,105z"/>
	<path class="st9" d="M351.2,98.2c-5.8,0-8.1,4.9-8.1,12v17.6H334V90.5h9.1v6.6c1.8-4.7,4.7-6.6,9.5-6.6h4.4v7.6L351.2,98.2
		L351.2,98.2z"/>
	<path class="st9" d="M361.2,90.5h9.1v5.8c1.8-3.8,5.5-6.4,10.8-6.4c5.9,0,10,2.5,11.6,7.1c1.7-3.8,6.4-7.1,12.3-7.1
		c8.1,0,13.2,5.8,13.2,13.7v24.1h-9v-21.3c0-5.2-2.7-8.7-7.1-8.7c-4.9,0-7.9,3.5-7.9,8.7v21.3h-9v-21.3c0-5.2-2.7-8.7-7.1-8.7
		c-4.8,0-7.8,3.5-7.8,8.7v21.3h-9.1V90.5z"/>
	<path class="st9" d="M434.7,74.6v10.1h-9.8V74.6H434.7z M425.3,90.5h9.1v37.2h-9.1V90.5z"/>
	<path class="st9" d="M441.5,90.5h9.1v5.8c2.1-4.1,6.3-6.4,11.6-6.4c8.4,0,13.9,6.1,13.9,14.8v23H467v-21.1c0-5.1-3.1-8.6-7.8-8.6
		c-5.1,0-8.6,4-8.6,9.5v20.3h-9.1V90.5z"/>
	<path class="st9" d="M495.6,79.3v11.2h10.3v7.6h-10.3v16.2c0,3.8,2,5.7,5.4,5.7h4.9v7.7h-6c-8.1,0-13.4-4.7-13.4-13V98.2h-7.3v-7.6
		h7.3V79.3H495.6z"/>
</g>
</svg>
