<svg width="120" height="48" viewBox="0 0 120 48" fill="none" xmlns="http://www.w3.org/2000/svg">
<g clip-path="url(#clip0)">
<g clip-path="url(#clip1)">
<path d="M0.440674 23.2319L13.9999 31.2372V0.75L0.440674 23.2319Z" fill="#E6ECF2"/>
<path d="M14 0.75V31.2372L27.5539 23.2319L14 0.75Z" fill="#CCD9E6"/>
<path d="M0.440674 25.7992L13.9999 44.8883V33.8045L0.440674 25.7992Z" fill="#8CA9C6"/>
<path d="M14 33.8045V44.8883L27.5646 25.7992L14 33.8045Z" fill="#336699"/>
<g opacity="0.25">
<path d="M13.9999 17.0695L0.440674 23.2319L13.9999 31.2372L27.5539 23.2319L13.9999 17.0695Z" fill="#004080"/>
</g>
<path fill-rule="evenodd" clip-rule="evenodd" d="M17.1442 14.4641C16.1526 14.0726 15.0846 13.8682 14.006 13.8682C11.739 13.8682 9.60667 14.7594 8.00182 16.3775C6.40393 17.9886 5.51618 20.1286 5.50189 22.4033L5.5 22.7088L5.76508 22.8598C7.04264 23.5876 8.48742 23.9706 9.95145 23.9706C9.9917 23.9706 10.0323 23.9703 10.0726 23.9697C11.3488 23.9513 12.6114 23.644 13.756 23.0769C13.3951 22.8747 13.0492 22.6471 12.7204 22.3961C10.7253 23.1831 8.46424 23.0861 6.55071 22.1004C6.73684 18.1085 10.019 14.9109 14.006 14.9109C15.1149 14.9109 16.2102 15.1566 17.1994 15.6233C17.2121 15.2369 17.1938 14.8495 17.1442 14.4641Z" fill="#3D6B99"/>
<path fill-rule="evenodd" clip-rule="evenodd" d="M22.5377 22.337C22.5073 19.5018 21.1323 16.9151 18.8403 15.3394C18.842 15.7542 18.8144 16.1689 18.7577 16.581C20.3863 17.9163 21.3792 19.8824 21.4878 22.0365C17.9747 23.8542 13.5934 22.5812 11.5977 19.1079C11.0586 18.1696 10.7281 17.1206 10.631 16.0488C10.2919 16.2344 9.96808 16.448 9.66235 16.6875C9.82356 17.719 10.1739 18.7207 10.6967 19.6305C11.8319 21.6064 13.6571 23.0229 15.8358 23.6191C16.575 23.8214 17.3266 23.9215 18.074 23.9215C19.5302 23.9215 20.9709 23.5415 22.2746 22.7971L22.5409 22.6449L22.5377 22.337Z" fill="#3D6B99"/>
<path fill-rule="evenodd" clip-rule="evenodd" d="M14.3133 7.94135L14.0509 7.78711L13.7884 7.94111C12.4915 8.70157 11.414 9.79186 10.6724 11.094C10.032 12.2186 9.65317 13.4783 9.56433 14.7642C9.91936 14.5528 10.2892 14.3668 10.6717 14.208C11.0011 12.0882 12.2314 10.1725 14.0504 9.00176C17.3913 11.154 18.49 15.6165 16.4832 19.1015C15.9398 20.0453 15.1967 20.8613 14.3164 21.4878C14.6452 21.6887 14.9904 21.8631 15.3492 22.009C16.163 21.3479 16.8559 20.538 17.3831 19.6224C19.7261 15.5535 18.3489 10.3134 14.3133 7.94135Z" fill="#3D6B99"/>
</g>
<path d="M39.4929 30.4648H48.9324V28.4832H41.7087V25.1145H48.0317V23.1149H41.7087V19.8363H48.8423V17.8548H39.4929V30.4648Z" fill="#15182D"/>
<path d="M53.5967 30.6269C54.4254 30.6269 55.0198 30.4467 55.5603 30.1405V28.3571C55.1279 28.5733 54.6956 28.6813 54.2092 28.6813C53.4706 28.6813 53.0383 28.3391 53.0383 27.4924V22.8267H55.5963V20.9532H53.0383V18.3411H50.8585V20.9532H49.6516V22.8267H50.8585V27.8347C50.8585 29.9243 51.9934 30.6269 53.5967 30.6269Z" fill="#15182D"/>
<path d="M56.8957 30.4648H59.0934V25.0965C59.0934 23.6193 59.9761 22.7366 61.2371 22.7366C62.5342 22.7366 63.2728 23.5833 63.2728 25.0605V30.4648H65.4525V24.3939C65.4525 22.1962 64.2095 20.7551 62.0658 20.7551C60.5886 20.7551 59.7059 21.5297 59.0934 22.4124V17.3143H56.8957V30.4648Z" fill="#15182D"/>
<path d="M71.5434 30.6809C73.2908 30.6809 74.5338 29.9784 75.4345 28.8975L74.1555 27.7626C73.3989 28.5012 72.6423 28.8975 71.5795 28.8975C70.1743 28.8975 69.0755 28.0328 68.8413 26.4836H75.8308C75.8488 26.2674 75.8669 26.0693 75.8669 25.8711C75.8669 23.1329 74.3356 20.7551 71.3092 20.7551C68.5891 20.7551 66.6616 22.9888 66.6616 25.709V25.745C66.6616 28.6813 68.7872 30.6809 71.5434 30.6809ZM68.8233 25.0425C69.0214 23.5653 69.9582 22.5385 71.2912 22.5385C72.7324 22.5385 73.561 23.6373 73.7051 25.0425H68.8233Z" fill="#15182D"/>
<path d="M77.1371 30.4648H79.3349V26.8439C79.3349 24.3219 80.6679 23.0789 82.5775 23.0789H82.7036V20.7731C81.0282 20.701 79.9294 21.6738 79.3349 23.0969V20.9532H77.1371V30.4648Z" fill="#15182D"/>
<path d="M83.6779 30.4648H85.8756V25.0965C85.8756 23.6373 86.7043 22.7366 87.9112 22.7366C89.1182 22.7366 89.8388 23.5653 89.8388 25.0425V30.4648H92.0185V25.0965C92.0185 23.5653 92.8652 22.7366 94.0541 22.7366C95.2791 22.7366 95.9816 23.5473 95.9816 25.0605V30.4648H98.1614V24.3939C98.1614 22.0701 96.9004 20.7551 94.8287 20.7551C93.3876 20.7551 92.3788 21.4216 91.6222 22.4304C91.1178 21.4216 90.145 20.7551 88.7759 20.7551C87.3168 20.7551 86.4881 21.5477 85.8756 22.3944V20.9532H83.6779V30.4648Z" fill="#15182D"/>
<path d="M99.9307 19.4941H102.273V17.4224H99.9307V19.4941ZM100.003 30.4648H102.201V20.9532H100.003V30.4648Z" fill="#15182D"/>
<path d="M104.13 30.4648H106.328V25.0965C106.328 23.6193 107.211 22.7366 108.472 22.7366C109.769 22.7366 110.507 23.5833 110.507 25.0605V30.4648H112.687V24.3939C112.687 22.1962 111.444 20.7551 109.301 20.7551C107.823 20.7551 106.941 21.5297 106.328 22.4124V20.9532H104.13V30.4648Z" fill="#15182D"/>
<path d="M117.607 30.6269C118.436 30.6269 119.03 30.4467 119.571 30.1405V28.3571C119.138 28.5733 118.706 28.6813 118.22 28.6813C117.481 28.6813 117.049 28.3391 117.049 27.4924V22.8267H119.607V20.9532H117.049V18.3411H114.869V20.9532H113.662V22.8267H114.869V27.8347C114.869 29.9243 116.004 30.6269 117.607 30.6269Z" fill="#15182D"/>
</g>
<defs>
<clipPath id="clip0">
<rect width="120" height="48" fill="white"/>
</clipPath>
<clipPath id="clip1">
<rect width="46.5" height="46.5" fill="white" transform="translate(-9.25 0.75)"/>
</clipPath>
</defs>
</svg>
