<svg width="160" height="64" viewBox="0 0 160 64" fill="none" xmlns="http://www.w3.org/2000/svg">
<g clip-path="url(#clip0)">
<path d="M0.587524 30.9759L18.6665 41.6497V1L0.587524 30.9759Z" fill="#E6ECF2"/>
<path d="M18.6666 1V41.6497L36.7385 30.9759L18.6666 1Z" fill="#CCD9E6"/>
<path d="M0.587524 34.3989L18.6665 59.8511V45.0727L0.587524 34.3989Z" fill="#8CA9C6"/>
<path d="M18.6666 45.0727V59.8511L36.7528 34.3989L18.6666 45.0727Z" fill="#336699"/>
<g opacity="0.25">
<path d="M18.6665 22.7594L0.587524 30.976L18.6665 41.6497L36.7384 30.976L18.6665 22.7594Z" fill="#004080"/>
</g>
<path fill-rule="evenodd" clip-rule="evenodd" d="M22.859 19.2854C21.5368 18.7635 20.1128 18.4908 18.6747 18.4908C15.6521 18.4908 12.8089 19.6791 10.6691 21.8366C8.53862 23.9847 7.35494 26.838 7.3359 29.8711L7.33337 30.2784L7.68681 30.4797C9.39023 31.4502 11.3166 31.9607 13.2686 31.9607C13.3223 31.9607 13.3764 31.9604 13.4302 31.9595C15.1318 31.935 16.8152 31.5253 18.3414 30.7691C17.8602 30.4996 17.399 30.196 16.9606 29.8614C14.3005 30.9108 11.2857 30.7814 8.73432 29.4671C8.98249 24.1447 13.3588 19.8812 18.6747 19.8812C20.1532 19.8812 21.6136 20.2087 22.9326 20.831C22.9495 20.3158 22.9251 19.7993 22.859 19.2854" fill="#3D6B99"/>
<path fill-rule="evenodd" clip-rule="evenodd" d="M30.0503 29.7828C30.0098 26.0025 28.1765 22.5535 25.1205 20.4525C25.1228 21.0057 25.0859 21.5585 25.0103 22.1081C27.1818 23.8884 28.5056 26.51 28.6505 29.3821C23.9663 31.8056 18.1246 30.1083 15.4636 25.4772C14.7449 24.2262 14.3042 22.8276 14.1747 21.3984C13.7226 21.646 13.2908 21.9307 12.8832 22.2501C13.0981 23.6254 13.5652 24.961 14.2623 26.1741C15.776 28.8085 18.2095 30.6972 21.1145 31.4922C22.1 31.7619 23.1021 31.8954 24.0987 31.8954C26.0403 31.8954 27.9613 31.3888 29.6995 30.3962L30.0546 30.1932L30.0503 29.7828Z" fill="#3D6B99"/>
<path fill-rule="evenodd" clip-rule="evenodd" d="M19.0844 10.5885L18.7345 10.3828L18.3845 10.5882C16.6553 11.6021 15.2186 13.0558 14.2298 14.792C13.376 16.2915 12.8709 17.9711 12.7524 19.6856C13.2258 19.4037 13.719 19.1558 14.2289 18.9439C14.6681 16.1176 16.3085 13.5633 18.7339 12.0023C23.1884 14.872 24.6533 20.822 21.9776 25.4686C21.253 26.727 20.2623 27.815 19.0885 28.6504C19.5269 28.9183 19.9872 29.1508 20.4656 29.3453C21.5507 28.4638 22.4745 27.384 23.1775 26.1632C26.3014 20.738 24.4652 13.7513 19.0844 10.5885" fill="#3D6B99"/>
<path d="M52.6572 40.6197H65.2432V37.9776H55.6116V33.4861H64.0423V30.8199H55.6116V26.4485H65.1231V23.8064H52.6572V40.6197Z" fill="#15182D"/>
<path d="M71.4623 40.8359C72.5671 40.8359 73.3598 40.5957 74.0803 40.1874V37.8095C73.5039 38.0977 72.9274 38.2418 72.2789 38.2418C71.2941 38.2418 70.7177 37.7855 70.7177 36.6566V30.4356H74.1284V27.9377H70.7177V24.4549H67.8114V27.9377H66.2021V30.4356H67.8114V37.1129C67.8114 39.8991 69.3246 40.8359 71.4623 40.8359Z" fill="#15182D"/>
<path d="M75.8609 40.6197H78.7913V33.462C78.7913 31.4925 79.9682 30.3155 81.6495 30.3155C83.3789 30.3155 84.3637 31.4444 84.3637 33.414V40.6197H87.27V32.5253C87.27 29.595 85.6127 27.6735 82.7544 27.6735C80.7848 27.6735 79.6079 28.7063 78.7913 29.8832V23.0858H75.8609V40.6197Z" fill="#15182D"/>
<path d="M95.3912 40.9079C97.7211 40.9079 99.3784 39.9712 100.579 38.5301L98.874 37.0169C97.8652 38.0016 96.8564 38.5301 95.4393 38.5301C93.5658 38.5301 92.1006 37.3771 91.7884 35.3115H101.108C101.132 35.0233 101.156 34.7591 101.156 34.4949C101.156 30.844 99.1142 27.6735 95.079 27.6735C91.4521 27.6735 88.8821 30.6518 88.8821 34.2787V34.3267C88.8821 38.2418 91.7163 40.9079 95.3912 40.9079ZM91.7644 33.39C92.0286 31.4204 93.2776 30.0513 95.055 30.0513C96.9765 30.0513 98.0814 31.5165 98.2735 33.39H91.7644Z" fill="#15182D"/>
<path d="M102.85 40.6197H105.78V35.7919C105.78 32.4292 107.557 30.7719 110.103 30.7719H110.271V27.6975C108.038 27.6014 106.572 28.8984 105.78 30.7959V27.9377H102.85V40.6197Z" fill="#15182D"/>
<path d="M111.571 40.6197H114.501V33.462C114.501 31.5165 115.606 30.3155 117.215 30.3155C118.824 30.3155 119.785 31.4204 119.785 33.39V40.6197H122.691V33.462C122.691 31.4204 123.82 30.3155 125.405 30.3155C127.039 30.3155 127.976 31.3964 127.976 33.414V40.6197H130.882V32.5253C130.882 29.4268 129.2 27.6735 126.438 27.6735C124.517 27.6735 123.172 28.5622 122.163 29.9072C121.49 28.5622 120.193 27.6735 118.368 27.6735C116.422 27.6735 115.317 28.7303 114.501 29.8592V27.9377H111.571V40.6197Z" fill="#15182D"/>
<path d="M133.241 25.9921H136.363V23.2299H133.241V25.9921ZM133.337 40.6197H136.267V27.9377H133.337V40.6197Z" fill="#15182D"/>
<path d="M138.841 40.6197H141.771V33.462C141.771 31.4925 142.948 30.3155 144.629 30.3155C146.359 30.3155 147.343 31.4444 147.343 33.414V40.6197H150.25V32.5253C150.25 29.595 148.592 27.6735 145.734 27.6735C143.764 27.6735 142.588 28.7063 141.771 29.8832V27.9377H138.841V40.6197Z" fill="#15182D"/>
<path d="M156.81 40.8359C157.915 40.8359 158.707 40.5957 159.428 40.1874V37.8095C158.851 38.0977 158.275 38.2418 157.626 38.2418C156.641 38.2418 156.065 37.7855 156.065 36.6566V30.4356H159.476V27.9377H156.065V24.4549H153.159V27.9377H151.549V30.4356H153.159V37.1129C153.159 39.8991 154.672 40.8359 156.81 40.8359Z" fill="#15182D"/>
</g>
<defs>
<clipPath id="clip0">
<rect width="160" height="64" fill="white"/>
</clipPath>
</defs>
</svg>
