<?xml version="1.0" encoding="utf-8"?>
<!-- Generator: Adobe Illustrator 25.0.0, SVG Export Plug-In . SVG Version: 6.00 Build 0)  -->
<svg width="240" height="96" version="1.1" id="Layer_1" xmlns="http://www.w3.org/2000/svg" xmlns:xlink="http://www.w3.org/1999/xlink" x="0px" y="0px"
	 viewBox="0 0 526 192" style="enable-background:new 0 0 526 192;" xml:space="preserve">
<style type="text/css">
	.st0{fill:#131516;}
	.st1{fill:url(#SVGID_1_);}
	.st2{fill:url(#SVGID_2_);}
	.st3{fill:url(#SVGID_3_);}
	.st4{fill:url(#SVGID_4_);}
	.st5{fill:#B3C9F4;}
	.st6{fill-rule:evenodd;clip-rule:evenodd;fill:#FFFFFF;}
	.st7{fill:#717BBF;}
	.st8{opacity:0.5;fill:url(#SVGID_5_);enable-background:new    ;}
	.st9{opacity:0.5;fill:url(#SVGID_6_);enable-background:new    ;}
</style>
<g>
	<path class="st0" d="M180.9,75.3l35,0v8.6l-25.1,0v12.8l20.1,0v8.6l-20.1,0v14l25.9,0l0,8.6l-35.8,0L180.9,75.3z"/>
	<path class="st0" d="M247.7,73.8l9.2,0v22.1c2.1-4.1,6.5-6.5,11.9-6.5c8.5,0,14,6.2,14,15v23.4l-9.2,0l0-21.5c0-5.2-3.2-8.8-8-8.8
		c-5.1,0-8.8,4.1-8.8,9.6l0,20.6l-9.2,0L247.7,73.8z"/>
	<path class="st0" d="M324.3,115.2c-1.4,8-8.5,13.2-17.8,13.2c-12.4,0-19.3-9.8-19.3-19.7c0-10,6.2-19.4,18.5-19.4
		c12.7,0,18.4,9.2,18.4,18.2c0,1.3-0.1,2.4-0.1,3.2l-27.9,0c0.7,6.1,4.6,10,10.4,10c4.7,0,7.8-2,8.8-5.6L324.3,115.2z M296.3,104.7
		l18.6,0c-0.4-4.8-3.7-8.4-9.2-8.4C300.6,96.3,297.2,99,296.3,104.7z"/>
	<path class="st0" d="M345.3,97.7c-5.9,0-8.2,5-8.2,12.2v17.9l-9.2,0l0-37.8l9.2,0v6.7c1.9-4.8,4.8-6.7,9.7-6.7h4.4v7.7L345.3,97.7z
		"/>
	<path class="st0" d="M355.9,90l9.2,0v5.9c1.9-3.8,5.6-6.5,11-6.5c6,0,10.1,2.6,11.8,7.2c1.7-3.9,6.5-7.2,12.5-7.2
		c8.2,0,13.4,5.9,13.4,14l0,24.5l-9.2,0l0-21.7c0-5.3-2.8-8.9-7.2-8.9c-5,0-8,3.5-8,8.9v21.7l-9.2,0v-21.7c0-5.3-2.8-8.9-7.2-8.9
		c-4.9,0-8,3.5-8,8.9l0,21.7l-9.2,0L355.9,90z"/>
	<path class="st0" d="M429.1,73.8v10.3l-9.9,0l0-10.3L429.1,73.8z M419.5,90l9.2,0l0,37.8l-9.2,0L419.5,90z"/>
	<path class="st0" d="M435,90l9.2,0v5.9c2.1-4.1,6.4-6.5,11.8-6.5c8.6,0,14.1,6.2,14.1,15v23.4l-9.2,0v-21.5c0-5.2-3.2-8.8-7.9-8.8
		c-5.2,0-8.8,4.1-8.8,9.6l0,20.6l-9.2,0L435,90z"/>
	<path class="st0" d="M489.4,78.4v11.5h10.6v7.8h-10.6v16.6c0,3.8,2,5.8,5.5,5.8h5.1v7.8h-6.1c-8.3,0-13.7-4.8-13.7-13.3v-17h-7.5
		v-7.8h7.5V78.4H489.4z"/>
	<path class="st0" d="M233.4,78.4v11.5h10.6v7.8h-10.6v16.6c0,3.8,2,5.8,5.5,5.8h5.1v7.8h-6.1c-8.3,0-13.7-4.8-13.7-13.3v-17h-7.5
		v-7.8h7.5V78.4H233.4z"/>
</g>
<g>
	<g>
		
			<linearGradient id="SVGID_1_" gradientUnits="userSpaceOnUse" x1="-624.5055" y1="-406.1891" x2="-639.7977" y2="-476.3224" gradientTransform="matrix(1 0 0 1 720.2893 484.6111)">
			<stop  offset="0" style="stop-color:#8D8DE4"/>
			<stop  offset="1" style="stop-color:#89A2E5;stop-opacity:0"/>
			<stop  offset="1" style="stop-color:#BBD9FF;stop-opacity:0"/>
		</linearGradient>
		<path class="st1" d="M76.7,8.8v120.3l53.5-31.6L76.7,8.8z"/>
		
			<linearGradient id="SVGID_2_" gradientUnits="userSpaceOnUse" x1="-635.0693" y1="-421.3597" x2="-690.7014" y2="-384.1838" gradientTransform="matrix(1 0 0 1 720.2893 484.6111)">
			<stop  offset="0" style="stop-color:#8D8DE4"/>
			<stop  offset="1" style="stop-color:#89A2E5;stop-opacity:0"/>
			<stop  offset="1" style="stop-color:#BBD9FF;stop-opacity:0"/>
		</linearGradient>
		<path class="st2" d="M23.1,97.5l53.5,31.6V8.8L23.1,97.5z"/>
	</g>
	
		<linearGradient id="SVGID_3_" gradientUnits="userSpaceOnUse" x1="23.0618" y1="-1965.4794" x2="76.6382" y2="-1965.4794" gradientTransform="matrix(1 0 0 -1 0 -1820)">
		<stop  offset="0" style="stop-color:#E3FFFF"/>
		<stop  offset="1" style="stop-color:#89A2E5"/>
		<stop  offset="1" style="stop-color:#BBF9FF;stop-opacity:0"/>
	</linearGradient>
	<path class="st3" d="M23.1,107.8l53.6,75.4v-43.8L23.1,107.8z"/>
	
		<linearGradient id="SVGID_4_" gradientUnits="userSpaceOnUse" x1="-50.0858" y1="1004.2726" x2="414.7754" y2="677.7925" gradientTransform="matrix(1 0 0 1 0 -754)">
		<stop  offset="6.489749e-03" style="stop-color:#DC614D"/>
		<stop  offset="0.3603" style="stop-color:#8D8DE4"/>
		<stop  offset="1" style="stop-color:#89A2E5"/>
	</linearGradient>
	<path class="st4" d="M76.6,139.4v43.8l53.6-75.4L76.6,139.4z"/>
	<g>
		<path class="st5" d="M76.6,73.2L23.1,97.6l53.6,31.6l53.6-31.6L76.6,73.2z"/>
	</g>
	<path class="st6" d="M89.1,63c-3.9-1.5-8.1-2.4-12.4-2.4c-9,0-17.4,3.5-23.7,9.9c-6.3,6.4-9.8,14.8-9.9,23.7v1.2l1.1,0.6
		c5.1,2.9,10.8,4.4,16.5,4.4c0.2,0,0.3,0,0.5,0c5.1-0.1,10.1-1.3,14.6-3.5c-1.5-0.8-2.9-1.7-4.1-2.7c-7.9,3.2-16.8,2.7-24.4-1.2
		C48,77.2,61,64.6,76.6,64.6c4.4,0,8.7,1,12.6,2.9C89.3,66,89.3,64.6,89.1,63"/>
	<path class="st6" d="M110.3,94.1c-0.1-11.3-5.6-21.4-14.6-27.7c0,1.7-0.1,3.3-0.3,4.9c6.4,5.3,10.4,13,10.8,21.5
		C92.4,100,75,95,67.1,81.3c-2.2-3.7-3.4-7.8-3.8-12.1c-1.4,0.8-2.7,1.5-3.8,2.5c0.7,4.1,2,8.1,4.1,11.6
		c4.5,7.8,11.8,13.4,20.4,15.8c2.9,0.8,5.9,1.2,8.8,1.2c5.7,0,11.4-1.5,16.6-4.4l1.1-0.6L110.3,94.1z"/>
	<path class="st6" d="M77.8,37.2l-1.1-0.6l-1,0.6c-5.1,3-9.4,7.4-12.3,12.4c-2.5,4.4-4,9.4-4.4,14.5c1.4-0.9,2.9-1.5,4.4-2.2
		c1.3-8.4,6.2-16,13.4-20.5c13.2,8.5,17.5,26.2,9.6,39.9c-2.2,3.7-5.1,6.9-8.6,9.4c1.3,0.8,2.7,1.5,4.1,2c3.2-2.7,6-5.7,8.1-9.4
		C99.3,67.3,93.8,46.6,77.8,37.2"/>
	<polygon class="st7" points="76.6,145.2 130.3,107.8 130.3,107.8 76.6,139.4 23.1,107.8 23.1,107.8 	"/>
	
		<linearGradient id="SVGID_5_" gradientUnits="userSpaceOnUse" x1="75.316" y1="-1829.4694" x2="42.8308" y2="-1962.051" gradientTransform="matrix(1 0 0 -1 0 -1820)">
		<stop  offset="0" style="stop-color:#E3FFFF"/>
		<stop  offset="1" style="stop-color:#BBF9FF;stop-opacity:0"/>
	</linearGradient>
	<path class="st8" d="M23.1,97.6l53.6,31.6V8.8L23.1,97.6z"/>
	
		<linearGradient id="SVGID_6_" gradientUnits="userSpaceOnUse" x1="116.8103" y1="-1924.3955" x2="55.5375" y2="-1870.5176" gradientTransform="matrix(1 0 0 -1 0 -1820)">
		<stop  offset="1.975860e-02" style="stop-color:#DD5C47"/>
		<stop  offset="1" style="stop-color:#BBF9FF;stop-opacity:0"/>
	</linearGradient>
	<path class="st9" d="M76.6,8.8v120.5l53.6-31.6L76.6,8.8z"/>
</g>
</svg>
